<svg width="20" height="15" viewBox="0 0 20 15" fill="none" xmlns="http://www.w3.org/2000/svg">
<path fill-rule="evenodd" clip-rule="evenodd" d="M11 13.4807C11 13.8457 11.3805 14.0964 11.7221 13.968C12.9648 13.5007 15.7449 12.6044 19.538 12.2614C19.7983 12.2378 20.0001 12.0276 20.0001 11.7662C20.0001 9.85102 20.0001 2.48112 20.0001 0.491175C20.0001 0.215033 19.7786 -0.00425403 19.5028 0.00951896C18.2477 0.0721931 14.8014 0.380848 11.2953 1.9009C11.1152 1.97899 11 2.1574 11 2.35371C11 3.95727 11 11.0941 11 13.4807Z" fill="#38CB89"/>
<path opacity="0.6" fill-rule="evenodd" clip-rule="evenodd" d="M8.99999 13.4807C8.99999 13.8457 8.61952 14.0964 8.27792 13.968C7.03515 13.5007 4.25514 12.6044 0.461952 12.2614C0.201698 12.2378 -5.43594e-05 12.0276 -5.43594e-05 11.7662C-5.43594e-05 9.85102 -5.43594e-05 2.48112 -5.43594e-05 0.491175C-5.43594e-05 0.215033 0.221433 -0.00425404 0.497231 0.00951895C1.75226 0.0721931 5.19858 0.380848 8.70471 1.9009C8.88483 1.97899 8.99999 2.1574 8.99999 2.35371C8.99999 3.95727 8.99999 11.0941 8.99999 13.4807Z" fill="#38CB89"/>
</svg>
