<svg width="20" height="16" viewBox="0 0 20 16" fill="none" xmlns="http://www.w3.org/2000/svg">
<path fill-rule="evenodd" clip-rule="evenodd" d="M2 3.19946C0.895431 3.19946 0 4.09489 0 5.19946V13.9996C0 15.1042 0.895431 15.9996 2 15.9996H18C19.1046 15.9996 20 15.1042 20 13.9996V5.19946C20 4.09489 19.1046 3.19946 18 3.19946H2ZM5.55542 9.59977C5.55542 11.9562 7.54527 13.8665 9.99986 13.8665C12.4545 13.8665 14.4443 11.9562 14.4443 9.59977C14.4443 7.24333 12.4545 5.33305 9.99986 5.33305C7.54527 5.33305 5.55542 7.24333 5.55542 9.59977Z" fill="#FF5630"/>
<rect x="6.66602" width="6.66667" height="2.13336" rx="1.06668" fill="#FF5630"/>
<path opacity="0.3" fill-rule="evenodd" clip-rule="evenodd" d="M9.99957 11.7336C11.2269 11.7336 12.2218 10.7785 12.2218 9.60028C12.2218 8.42206 11.2269 7.46692 9.99957 7.46692C8.77227 7.46692 7.77734 8.42206 7.77734 9.60028C7.77734 10.7785 8.77227 11.7336 9.99957 11.7336Z" fill="#FF5630"/>
</svg>
