<svg width="16" height="16" viewBox="0 0 16 16" fill="none" xmlns="http://www.w3.org/2000/svg">
<path d="M8 15.9999C3.5816 15.9999 0 12.4183 0 7.99994C0 3.58154 3.5816 -6.10352e-05 8 -6.10352e-05C12.4184 -6.10352e-05 16 3.58154 16 7.99994C16 12.4183 12.4184 15.9999 8 15.9999ZM8 14.3999C9.69739 14.3999 11.3253 13.7257 12.5255 12.5254C13.7257 11.3252 14.4 9.69732 14.4 7.99994C14.4 6.30255 13.7257 4.67469 12.5255 3.47446C11.3253 2.27422 9.69739 1.59994 8 1.59994C6.30261 1.59994 4.67475 2.27422 3.47452 3.47446C2.27428 4.67469 1.6 6.30255 1.6 7.99994C1.6 9.69732 2.27428 11.3252 3.47452 12.5254C4.67475 13.7257 6.30261 14.3999 8 14.3999ZM4 7.99994H5.6C5.6 8.63646 5.85286 9.24691 6.30294 9.697C6.75303 10.1471 7.36348 10.3999 8 10.3999C8.63652 10.3999 9.24697 10.1471 9.69706 9.697C10.1471 9.24691 10.4 8.63646 10.4 7.99994H12C12 9.06081 11.5786 10.0782 10.8284 10.8284C10.0783 11.5785 9.06087 11.9999 8 11.9999C6.93913 11.9999 5.92172 11.5785 5.17157 10.8284C4.42143 10.0782 4 9.06081 4 7.99994Z" fill="white"/>
<path d="M8 15.9999C3.5816 15.9999 0 12.4183 0 7.99994C0 3.58154 3.5816 -6.10352e-05 8 -6.10352e-05C12.4184 -6.10352e-05 16 3.58154 16 7.99994C16 12.4183 12.4184 15.9999 8 15.9999ZM8 14.3999C9.69739 14.3999 11.3253 13.7257 12.5255 12.5254C13.7257 11.3252 14.4 9.69732 14.4 7.99994C14.4 6.30255 13.7257 4.67469 12.5255 3.47446C11.3253 2.27422 9.69739 1.59994 8 1.59994C6.30261 1.59994 4.67475 2.27422 3.47452 3.47446C2.27428 4.67469 1.6 6.30255 1.6 7.99994C1.6 9.69732 2.27428 11.3252 3.47452 12.5254C4.67475 13.7257 6.30261 14.3999 8 14.3999ZM4 7.99994H5.6C5.6 8.63646 5.85286 9.24691 6.30294 9.697C6.75303 10.1471 7.36348 10.3999 8 10.3999C8.63652 10.3999 9.24697 10.1471 9.69706 9.697C10.1471 9.24691 10.4 8.63646 10.4 7.99994H12C12 9.06081 11.5786 10.0782 10.8284 10.8284C10.0783 11.5785 9.06087 11.9999 8 11.9999C6.93913 11.9999 5.92172 11.5785 5.17157 10.8284C4.42143 10.0782 4 9.06081 4 7.99994Z" fill="#4E5D78"/>
</svg>
