<svg width="16" height="10" viewBox="0 0 16 10" fill="none" xmlns="http://www.w3.org/2000/svg">
<path fill-rule="evenodd" clip-rule="evenodd" d="M15.6384 1.40726C15.8604 1.52153 16 1.75032 16 2.00004V8.66671C16 8.91643 15.8604 9.14522 15.6384 9.25949C15.4163 9.37376 15.1491 9.35435 14.9458 9.2092L10.2792 5.87587C10.104 5.75072 10 5.54868 10 5.33338C10 5.11808 10.104 4.91603 10.2792 4.79089L14.9458 1.45755C15.1491 1.3124 15.4163 1.293 15.6384 1.40726ZM11.6471 5.34988L14.5 7.24988V3.49988L11.6471 5.34988Z" fill="white"/>
<path fill-rule="evenodd" clip-rule="evenodd" d="M15.6384 1.40726C15.8604 1.52153 16 1.75032 16 2.00004V8.66671C16 8.91643 15.8604 9.14522 15.6384 9.25949C15.4163 9.37376 15.1491 9.35435 14.9458 9.2092L10.2792 5.87587C10.104 5.75072 10 5.54868 10 5.33338C10 5.11808 10.104 4.91603 10.2792 4.79089L14.9458 1.45755C15.1491 1.3124 15.4163 1.293 15.6384 1.40726ZM11.6471 5.34988L14.5 7.24988V3.49988L11.6471 5.34988Z" fill="#4E5D78"/>
<path fill-rule="evenodd" clip-rule="evenodd" d="M2.07246 1.5C1.72028 1.5 1.43478 1.77982 1.43478 2.125V7.875C1.43478 8.22018 1.72028 8.5 2.07246 8.5H8.92754C9.27972 8.5 9.56522 8.22018 9.56522 7.875V2.125C9.56522 1.77982 9.27972 1.5 8.92754 1.5H2.07246ZM0 1.875C0 0.839466 0.856499 0 1.91304 0H9.08696C10.1435 0 11 0.839466 11 1.875V8.125C11 9.16053 10.1435 10 9.08696 10H1.91304C0.856499 10 0 9.16053 0 8.125V1.875Z" fill="white"/>
<path fill-rule="evenodd" clip-rule="evenodd" d="M2.07246 1.5C1.72028 1.5 1.43478 1.77982 1.43478 2.125V7.875C1.43478 8.22018 1.72028 8.5 2.07246 8.5H8.92754C9.27972 8.5 9.56522 8.22018 9.56522 7.875V2.125C9.56522 1.77982 9.27972 1.5 8.92754 1.5H2.07246ZM0 1.875C0 0.839466 0.856499 0 1.91304 0H9.08696C10.1435 0 11 0.839466 11 1.875V8.125C11 9.16053 10.1435 10 9.08696 10H1.91304C0.856499 10 0 9.16053 0 8.125V1.875Z" fill="#4E5D78"/>
</svg>
