<svg width="17" height="14" viewBox="0 0 17 14" fill="none" xmlns="http://www.w3.org/2000/svg">
<path fill-rule="evenodd" clip-rule="evenodd" d="M1.01772 9.24462C1.66935 8.57659 2.55316 8.20129 3.47471 8.20129H8.64638C9.56793 8.20129 10.4517 8.57659 11.1034 9.24462C11.755 9.91265 12.1211 10.8187 12.1211 11.7634V13.0889C12.1211 13.5921 11.8 14.0001 11.3091 14.0001C10.8181 14.0001 10.497 13.5921 10.497 13.0889V11.5001C10.497 11.0387 10.3182 10.5963 10 10.27C9.68176 9.94376 9.25013 9.76048 8.80007 9.76048H3.19993C2.74987 9.76048 2.31824 9.94376 2 10.27C1.68176 10.5963 1.50297 11.0387 1.50297 11.5001V13.0889C1.50297 13.5921 1.2424 14.0001 0.751487 14.0001C0.260572 14.0001 0 13.5921 0 13.0889V11.7634C0 10.8187 0.366085 9.91265 1.01772 9.24462Z" fill="white"/>
<path fill-rule="evenodd" clip-rule="evenodd" d="M1.01772 9.24462C1.66935 8.57659 2.55316 8.20129 3.47471 8.20129H8.64638C9.56793 8.20129 10.4517 8.57659 11.1034 9.24462C11.755 9.91265 12.1211 10.8187 12.1211 11.7634V13.0889C12.1211 13.5921 11.8 14.0001 11.3091 14.0001C10.8181 14.0001 10.497 13.5921 10.497 13.0889V11.5001C10.497 11.0387 10.3182 10.5963 10 10.27C9.68176 9.94376 9.25013 9.76048 8.80007 9.76048H3.19993C2.74987 9.76048 2.31824 9.94376 2 10.27C1.68176 10.5963 1.50297 11.0387 1.50297 11.5001V13.0889C1.50297 13.5921 1.2424 14.0001 0.751487 14.0001C0.260572 14.0001 0 13.5921 0 13.0889V11.7634C0 10.8187 0.366085 9.91265 1.01772 9.24462Z" fill="#4E5D78"/>
<path fill-rule="evenodd" clip-rule="evenodd" d="M6.06065 1.5C5 1.5 4 2 4 3.56213C4 5 5 5.5 6.06065 5.5C6.99785 5.5 8 5 8 3.56213C8 2 6.99785 1.5 6.06065 1.5ZM2.58594 3.56213C2.58594 1.59482 4.14162 0 6.06065 0C7.97968 0 9.53536 1.59482 9.53536 3.56213C9.53536 5.52944 7.97968 7.12426 6.06065 7.12426C4.14162 7.12426 2.58594 5.52944 2.58594 3.56213Z" fill="white"/>
<path fill-rule="evenodd" clip-rule="evenodd" d="M6.06065 1.5C5 1.5 4 2 4 3.56213C4 5 5 5.5 6.06065 5.5C6.99785 5.5 8 5 8 3.56213C8 2 6.99785 1.5 6.06065 1.5ZM2.58594 3.56213C2.58594 1.59482 4.14162 0 6.06065 0C7.97968 0 9.53536 1.59482 9.53536 3.56213C9.53536 5.52944 7.97968 7.12426 6.06065 7.12426C4.14162 7.12426 2.58594 5.52944 2.58594 3.56213Z" fill="#4E5D78"/>
<path fill-rule="evenodd" clip-rule="evenodd" d="M12.3125 9.11268C12.3125 8.5 12.92 8.10456 13.3954 8.23037C14.1408 8.42769 14.8012 8.87321 15.2729 9.49699C15.7446 10.1208 16.0008 10.8875 16.0014 11.6767V13.0029C16.0014 13.5061 15.7419 13.9141 15.251 13.9141C14.76 13.9141 14.5005 13.5061 14.5005 13.0029L14.5008 11.6778C14.5005 11.2925 14.3754 10.9181 14.1451 10.6136C13.9147 10.3089 13.5922 10.0913 13.2281 9.99499C12.7528 9.86917 12.313 9.5 12.3125 9.11268Z" fill="white"/>
<path fill-rule="evenodd" clip-rule="evenodd" d="M12.3125 9.11268C12.3125 8.5 12.92 8.10456 13.3954 8.23037C14.1408 8.42769 14.8012 8.87321 15.2729 9.49699C15.7446 10.1208 16.0008 10.8875 16.0014 11.6767V13.0029C16.0014 13.5061 15.7419 13.9141 15.251 13.9141C14.76 13.9141 14.5005 13.5061 14.5005 13.0029L14.5008 11.6778C14.5005 11.2925 14.3754 10.9181 14.1451 10.6136C13.9147 10.3089 13.5922 10.0913 13.2281 9.99499C12.7528 9.86917 12.313 9.5 12.3125 9.11268Z" fill="#4E5D78"/>
<path fill-rule="evenodd" clip-rule="evenodd" d="M9.72554 0.771498C9.8473 0.283959 10.3315 -0.0100743 10.8071 0.114755C11.5545 0.310941 12.217 0.756563 12.6901 1.38137C13.1632 2.00617 13.42 2.77462 13.42 3.56557C13.42 4.35651 13.1632 5.12496 12.6901 5.74977C12.217 6.37457 11.5545 6.8202 10.8071 7.01638C10.3315 7.14121 9.8473 6.84718 9.72554 6.35964C9.60377 5.8721 10.1048 5.37568 10.5804 5.25085C10.9454 5.15504 11.269 4.93741 11.5 4.63227C11.731 4.32713 11.8564 3.95184 11.8564 3.56557C11.8564 3.17929 11.731 2.804 11.5 2.49887C11.269 2.19373 10.9454 1.9761 10.5804 1.88029C10.1048 1.75546 9.60377 1.25904 9.72554 0.771498Z" fill="white"/>
<path fill-rule="evenodd" clip-rule="evenodd" d="M9.72554 0.771498C9.8473 0.283959 10.3315 -0.0100743 10.8071 0.114755C11.5545 0.310941 12.217 0.756563 12.6901 1.38137C13.1632 2.00617 13.42 2.77462 13.42 3.56557C13.42 4.35651 13.1632 5.12496 12.6901 5.74977C12.217 6.37457 11.5545 6.8202 10.8071 7.01638C10.3315 7.14121 9.8473 6.84718 9.72554 6.35964C9.60377 5.8721 10.1048 5.37568 10.5804 5.25085C10.9454 5.15504 11.269 4.93741 11.5 4.63227C11.731 4.32713 11.8564 3.95184 11.8564 3.56557C11.8564 3.17929 11.731 2.804 11.5 2.49887C11.269 2.19373 10.9454 1.9761 10.5804 1.88029C10.1048 1.75546 9.60377 1.25904 9.72554 0.771498Z" fill="#4E5D78"/>
</svg>
